<svg width="22" height="22" viewBox="0 0 22 22" fill="none" xmlns="http://www.w3.org/2000/svg">
<path fill-rule="evenodd" clip-rule="evenodd" d="M9.06219 1.98893C5.15601 1.98893 1.98899 5.15624 1.98899 9.06213C1.98899 12.9677 5.15566 16.1343 9.06219 16.1343C12.9677 16.1343 16.1344 12.9677 16.1344 9.06213C16.1344 5.15626 12.9674 1.98893 9.06219 1.98893ZM0.5 9.06213C0.5 4.33393 4.33363 0.499939 9.06219 0.499939C13.7899 0.499939 17.6233 4.33412 17.6233 9.06213C17.6233 13.79 13.7901 17.6233 9.06219 17.6233C4.33347 17.6233 0.5 13.7902 0.5 9.06213Z" fill="white"/>
<path fill-rule="evenodd" clip-rule="evenodd" d="M20.4471 21.4999L14.1189 15.1717L15.1718 14.1189L21.5 20.4471L20.4471 21.4999Z" fill="white"/>
</svg>
